<!--?xml version="1.0" encoding="utf-8"?-->
<!-- Generator: Adobe Illustrator 15.1.0, SVG Export Plug-In . SVG Version: 6.00 Build 0)  -->

<svg version="1.1" id="_x32_" xmlns="http://www.w3.org/2000/svg" xmlns:xlink="http://www.w3.org/1999/xlink" x="0px" y="0px" width="512px" height="512px" viewBox="0 0 512 512" style="width: 128px; height: 128px; opacity: 1;" xml:space="preserve">
<style type="text/css">

	.st0{fill:#4B4B4B;}

</style>
<g>
	<path class="st0" d="M302.603,170.574l-106.609,40.234c-3.672,1.422-21.344,8.125-28.906,29.438
		c-1.328,3.719-14.703,48.984-14.703,48.984l28.391,11.281l20.531-36.469l36.172,16.672L302.603,170.574z" style="fill: rgb(75, 75, 75);"></path>
	<path class="st0" d="M455.432,276.793l-0.547,113.938c-0.047,3.938-0.156,22.844-17.516,37.375
		c-3.016,2.531-40.782,30.844-40.782,30.844l-20.469-22.688l27.031-31.938L374.9,376.23L455.432,276.793z" style="fill: rgb(75, 75, 75);"></path>
	<path class="st0" d="M263.072,295.715l-4.625,7.641c-5.547,10.078-2.594,22.688,6.844,29.25l51.297,35.641
		c9.438,6.547,22.297,4.922,29.797-3.766l5.547-7.016L263.072,295.715z" style="fill: rgb(75, 75, 75);"></path>
	<path class="st0" d="M492.213,60.824C444.416,27.605,367.431,108.23,334.572,163.34l-67.875,112.313l102.781,71.438l81.61-102.781
		C491.275,194.293,539.994,94.043,492.213,60.824z M346.119,271.027c-11.141-7.734-13.906-23.031-6.141-34.188
		c7.734-11.125,23.016-13.891,34.172-6.141c11.125,7.734,13.891,23.047,6.141,34.188
		C372.556,276.012,357.259,278.777,346.119,271.027z M399.634,194.043c-15.875-11.031-19.797-32.813-8.781-48.672
		c11.031-15.875,32.828-19.797,48.688-8.766c15.859,11.016,19.781,32.813,8.766,48.672
		C437.291,201.152,415.478,205.059,399.634,194.043z" style="fill: rgb(75, 75, 75);"></path>
	<path class="st0" d="M198.994,150.293l0.656,13.516c-23.984,1.672-47.531,8.328-69.266,18.547
		c-21.766,10.219-41.828,24.016-58.891,40.641c-17.016,16.578-31.141,36.172-39.438,57.609
		c-8.375,21.359-10.203,44.563-3.594,65.438c3.219,10.344,8.5,20.516,14.922,29.313c6.484,8.813,14.422,16.391,23.469,22.406
		c18.063,12.109,40.391,17.875,63,18.609c22.672,0.75,45.813-3.25,67.188-11.047c10.688-3.922,20.953-8.813,30.281-14.688
		c9.328-5.844,17.75-12.75,24.078-20.359l28.375,24.828c-10.172,11.172-21.813,19.641-33.859,26.594
		c-12.109,6.938-24.75,12.297-37.672,16.438c-25.844,8.234-52.969,11.813-80.172,9.844c-13.578-1.016-27.188-3.5-40.359-7.859
		c-13.156-4.328-25.906-10.609-37.313-18.922c-11.406-8.281-21.391-18.641-29.219-30.281C13.4,379.246,7.509,366.715,3.837,353.059
		c-3.641-13.563-4.641-27.797-3.219-41.578c1.406-13.813,5.188-27.109,10.547-39.484c10.828-24.781,27.609-45.859,46.969-63.313
		c19.438-17.438,41.688-31.391,65.531-41.453C147.494,157.215,173.072,151.074,198.994,150.293z" style="fill: rgb(75, 75, 75);"></path>
</g>
</svg>
